<mxfile host="app.diagrams.net" modified="2023-12-01T18:29:14.349Z" agent="Mozilla/5.0 (Windows NT 10.0; Win64; x64) AppleWebKit/537.36 (KHTML, like Gecko) Chrome/119.0.0.0 Safari/537.36" version="22.1.5" etag="f5wP_N85ybsy1nDNFcBE" type="github">
  <diagram name="PÃ¡gina-1" id="fO8w_vABovnZrQNNyFVQ">
    <mxGraphModel>
      <root>
        <mxCell id="0" />
        <mxCell id="1" parent="0" />
      </root>
    </mxGraphModel>
  </diagram>
</mxfile>
